<?xml version="1.0" encoding="utf-8"?>
<!-- Generator: Adobe Illustrator 22.1.0, SVG Export Plug-In . SVG Version: 6.00 Build 0)  -->
<svg version="1.1" id="Layer_1" xmlns="http://www.w3.org/2000/svg" xmlns:xlink="http://www.w3.org/1999/xlink" x="0px" y="0px"
	 viewBox="0 0 595.3 433.1" style="enable-background:new 0 0 595.3 433.1;" xml:space="preserve">
<style type="text/css">
	.st0{fill:#091B1D;}
	.st1{fill:#2BB673;}
	.st2{fill:#F05A27;}
</style>
<path class="st0" d="M204.2,180.8l17.9,24.6c3.9-0.3,7.5,0.2,10.4,1.6l-2.8-3.8l-19.3-26.4c3.7-4.8,2.9-12.6-1.4-17.8
	c-4.2-5.2-34.1-38.4-34.1-38.4l-1.6,0.9c0,0,24.3,34,28.1,38.8c2.2,2.9,3,5.7,2.6,7.8c-0.2,1.4-0.9,2.5-2,3.1
	c-1.3,0.8-2.7,1.1-4.2,0.7c-1.6-0.4-3.3-1.5-5.2-3.8c-3.6-4.4-29.9-40.9-29.9-40.9l-1.5,0.9c0,0,22.4,38.1,27.7,47.1
	C192.6,181.5,199.1,182.4,204.2,180.8z"/>
<path d="M282.6,277.5c0.1,0.1,0.3,0.1,0.4,0.2c0.1-0.4,0.2-0.7,0.3-1.1C283.1,276.9,282.9,277.2,282.6,277.5z"/>
<path class="st0" d="M431.7,146.9c-3.3-3-18.3-14.1-21.3-15.9c-3-1.8-6.2-1.8-9.1,2.4c-2.9,4.2-16.1,26.4-17.6,29.1
	c-1.4,2.8-0.8,4.5,0.3,6.7c0.8,1.6,3.3,5.8,4.5,7.9l-29.5,40.3c4-2.1,8.3-3.7,12.8-4.6l22.7-31.4c2.5,0.6,6.9,1.7,8.8,2.1
	c2.8,0.6,4.2-0.1,6.6-2.4c2.4-2.3,19-20.7,22.2-24.2C435.3,153.3,435,149.9,431.7,146.9z M392.2,167.1c-0.5,0.7-1,0.8-1.5,0.6
	c-0.5-0.3-1.5-1-0.4-2.7c1.1-1.7,15.5-26.2,16.5-27.7c1-1.5,2.5-1.2,3.2-0.8c0.7,0.4,1.3,2.1,0.5,3.5
	C409.7,141.3,392.2,167.1,392.2,167.1z M396.4,172c-0.7-0.7-0.4-1.6,0.3-2.6c0.7-1,17.2-24.3,18.3-25.8c1.2-1.5,2.3-1.5,3.1-1
	c0.8,0.5,1.5,2.2,0.5,3.5c-1,1.3-20,25.6-20,25.6C398.2,172.6,397.1,172.8,396.4,172z M427,152.5c-1.5,1.6-20.6,22.1-21.7,23.3
	c-1.1,1.2-2.2,1.3-2.8,0.8c-0.6-0.5-0.4-1.4,0-1.7c0,0,20.3-24.1,21.1-25.2c0.7-1,2-1.5,3-0.8C427.5,149.6,428.5,150.9,427,152.5z"
	/>
<path class="st0" d="M333.2,274.9c-0.8-0.9-2.1-1.2-3.2-0.9c-1.4,0.4-2,1.8-2.9,4.3c-1,2.8-2.5,6.9-5.9,12.3
	c-2.4,3.7-6.1,5.4-9.6,4.3c-3-0.9-6.2-4.1-6.2-10.4c0-13.4,12.5-27.7,14-29.2c1-1.1,1.6-1.5,1.8-1.7c0.1,0.3,0.3,1,0.3,2.6
	c0.1,2.7,1.5,3.3,2.1,3.5c1.6,0.4,3.3-0.8,4.5-3l0.3-0.5c1.4-2.5,3-5.4,4.7-7.1c1.4-1.4,1.7-3.8,0.6-5.5c-1-1.6-3.8-3.8-11.3-1
	c-7,2.5-12.5,10.5-15.5,15.9c-0.5-3.2-1.8-6.1-3.7-8.3c-2.9-3.2-7.2-4.9-12.1-4.8c-12.6,0.3-18.3,10.9-19.7,14.1
	c-1.1,2.5-2.8,6.9-1.8,9.2c0.4,0.8,1,1.2,1.4,1.3c2.4,0.9,3.3-1,6.2-7.3l0.4-0.8c1.6-3.5,4.4-6.2,7.2-6.9c1.1-0.3,2.7-0.4,4.2,0.6
	c3.4,2.3,4.8,15-0.3,27.7c-4,10-10,14.3-13,14.7c-0.8,0.1-1.3,0-1.6-0.4c-0.4-0.6-0.6-1.3-0.4-2.2c0.4-2.3,2.5-4.7,3.9-5.6
	c1.5-1,2.3-2.6,2.1-4.1c-0.2-1.7-1.5-3.1-3.6-3.8c-3.9-1.4-7.6,0.1-10,4.1c-0.4,0.6-0.7,1.3-1.1,2c-1.9,3.2-4.2,7.3-7.4,9.5
	c-1.6,1.1-3.3,1.3-4.2,0.6c-0.6-0.4-2.2-2.3,0.1-9.5c4-12.1,10.9-28,12.7-30.9c1.5-2.4,1.8-4.9,0.7-6.6c-0.7-1.2-2.3-2.5-5.8-2.3
	c-4.1,0.2-7.4,3.8-9.1,6.2c-1.1-1.8-2.8-3.1-4.8-3.8c-4.8-1.7-11.6,0-19.6,4.9c-9,5.6-16.2,17.1-20.7,33.4
	c-1.4,5.1-7.3,11.4-12,12.7c-1.5,0.4-2.6,0.2-3.4-0.5c-3.5-3.4,3.8-21.9,8.1-33l1.2-3c12.8-32.8,18.2-42.7,20.6-45.2
	c2.7-2.8,4.6-3.4,5.8-3.8c0.8-0.2,2.5-0.7,2.1-2.6c-0.1-0.6-0.5-1.3-1.7-1.9c-3-1.5-9.6-1.4-17,2.3c-9,4.5-17.9,18.3-26.5,31.6
	l-1.9,2.8c-3.2,5-9,14.4-18.6,31.6c2.9-22.9-1.2-47.2-2.1-52.3c-1.4-7.6,0.3-9.4,1.1-10.3l1-1.3l-0.6-0.8
	c-1.6-2.3-25.8,0.1-38.1,3.8c-19.1,5.8-32.9,15.2-43.5,29.7c-7.2,9.9-9.5,22-5.8,30.8c2.3,5.6,6.8,9.3,12.5,10.2
	c14.4,2.3,22.3-6.3,24.7-11.8c1.1-2.5,2.1-5.8,0.3-6.9c-0.4-0.3-1.6-0.8-3.1,0.8c-0.2,0.2-0.4,0.5-0.7,0.8c-1.8,2.1-5.6,6.5-9.4,5.8
	c-1-0.2-2.5-1.6-3.5-4.4c-1.1-3.2-3.7-15.1,11.1-31.7c15.2-17.1,32.6-19.3,37.9-19.5c-0.7,3-2.3,10-5.7,22.4
	c-5.5,20.1-11.9,35.3-21.6,51c-6.2,10.1-14.4,16.8-22,17.9c-2.9,0.4-5.4-0.2-6.9-1.6c-4.2-3.8-2.6-9.9-2-11.7
	c0.2-0.6,0.1-1.1-0.2-1.7c-0.3-0.5-0.8-0.8-1.4-0.8c-7.4-0.7-13.2,6.1-14.6,13.2c-1.2,5.9,0.6,13.2,9.1,15.8
	c2.8,0.9,5.7,1.3,8.6,1.3c13.5,0,27.3-9.5,38.8-26.9c9.2-14,16.7-35.7,20.6-48.4c-0.3,10.6-1,26.9-2.9,38.5
	c-2.5,15.3-7.1,23.3-8.5,25.4c-0.4,0.6-0.4,1.3,0,1.9c0.4,0.6,1,1,1.7,0.9c15.9-0.7,21.9-12.4,29.5-27.1c0.8-1.7,1.7-3.4,2.7-5.1
	c4.3-8.1,10.4-18.5,15.7-27.3c-2.3,5.4-4.8,11.4-7,16.7c-4.5,10.8-6.9,25.8-1.7,33.1c2.1,3,5.4,4.5,9.5,4.3
	c10.9-0.5,17.6-7.6,20.6-11.6c1.7,4.5,5.9,9.8,14,9c8.5-0.7,14.1-6.9,16.6-10.6c1.5,3.3,4.7,7.2,10.3,7.9c6.9,0.9,12.8-4.4,15.6-7.4
	c1,2,2.8,3.7,4.9,4.7c3.1,1.6,6.6,1.6,10,0.1c5.4-2.4,10.3-8.9,12.7-12.4c1.9,3.9,6.3,10.6,15.4,11.4c12.4,1.1,23.6-11.3,26.2-20.7
	C335,280.3,334.9,276.7,333.2,274.9z M245.5,267.1c-1.9,7.1-5.8,16.3-5.8,16.5c-1.3,3.5-5.7,13.3-10,15.8c-2.1,1.3-4.2,1.4-5.5,0.4
	c-1.1-0.8-3.2-3.7-0.8-13.2c4.3-16.4,11.1-24.4,16-26.5c1.1-0.4,2.1-0.7,3-0.7c0.9,0,1.7,0.3,2.3,0.7
	C246,261.3,246.3,263.9,245.5,267.1z"/>
<path class="st0" d="M409.3,237.4c-2.1-7-7.1-12.1-14.4-14.7c-10.6-3.8-24.7-2-34.4,4.5c-8.4,5.6-13.7,14.1-13.9,22.1
	c-0.1,5,1.9,9.2,5.6,11.8c4.2,3,9.2,3.6,13.8,1.7c4.2-1.7,7.3-5.2,8-8.9c0.8-4.4-1.2-7-3.3-7.5c-2-0.5-3.8,0.7-4.4,2.7
	c-0.2,0.6-1.2,2.3-2.4,2.7c-0.5,0.2-0.9,0.1-1.5-0.1c-0.8-0.4-1.7-2.2-1.8-4.7c-0.1-2.1,0.2-9.3,8.6-14.5c5.8-3.6,11.9-4.2,16.2-1.6
	c4.2,2.5,6.3,7.6,6,14.5c-0.6,14-18.2,26.1-28.7,33.4c-1.6,1.1-3.1,2.1-4.3,3c-7.8,5.7-22.3,16.3-29.9,27
	c-6.1,8.6-8.3,19.3-6.1,20.9c0.3,0.2,0.6,0.3,1,0.3c0.5,0,1-0.2,1.5-0.8c0.2-0.2,0.4-0.5,0.6-0.9c1.8-2.9,6-9.6,23-7.6
	c9.4,1.1,27.1,1.4,39.8-8.7c7.8-6.3,12.4-15.5,13.6-27.5c0.1-0.6-0.1-1.1-0.5-1.5c-0.4-0.4-0.9-0.6-1.5-0.6l-6.8,0.6
	c-1.2,0.1-2.1,1.1-2.1,2.3c0,2.9-0.8,12.5-9,16.2c-6.6,3-14.4,1.5-21.3,0.2c-2.1-0.4-4.2-0.8-6.2-1c4.7-3.6,14.8-11.2,27.4-19.3
	C399.1,269.8,415.4,257.4,409.3,237.4z"/>
<path class="st0" d="M433.5,250l8.4-20.2c3.4-0.1,15.8-0.6,22.9-1.1c8.6-0.6,12-4,12.8-12.8c0.1-0.7-0.2-1.3-0.7-1.7
	c-0.5-0.4-1.2-0.5-1.8-0.3c-1.8,0.7-8.4,3-17.9,3.7c-5.3,0.4-13,0.9-19.6,0.9l-0.5,0c-1.7,0-3.2,0.2-4.2,3.1
	c-0.8,2.4-12,31.9-14.5,37.9c-1.7,4.1-2.1,6.8-1.1,8.5c0.5,0.8,1.2,1.4,2.2,1.6c2.1,0.4,3.3-0.7,5.8-2.9l1.3-1.1
	c0.5-0.4,12.4-10.6,21.4-8c2.8,0.8,4.5,3.2,5.4,5.1c3,6.1,2.8,15.7-0.5,23.8c-6.1,15.2-12.6,22-21.9,22.9c-4.3,0.4-7.5-1-9-4
	c-1.5-2.9-1-6.7,1.1-9.2c2.8-3.2,5.2-4.3,6.6-5c1-0.5,2.2-1,2-2.4c-0.1-0.4-0.6-4.3-3.6-6.4c-1.7-1.2-3.8-1.6-6.3-1.1
	c-8.6,1.8-17.6,7.5-16.8,18.1c0.7,9.9,7.6,17.4,18.5,20.2c1.5,0.4,3.5,0.6,5.7,0.6c12.7,0,35-7,44.2-30.3
	c5.6-14.2,3.6-28.7-5.2-36.9C460,245.4,447.5,244.3,433.5,250z"/>
<path class="st1" d="M353.4,125c0,1.4,0,2.8,0,4.3c10.7,5.4,20.5,12.3,29.3,20.3c0.7-1.1,1.3-2.2,2-3.4
	C375.4,137.7,364.8,130.6,353.4,125z"/>
<path class="st1" d="M415,186.4c-1,0.9-1.9,1.7-3,2.4c5.1,10.3,8.8,21.4,11,33c0.6-1.6,1-2.6,1.1-3c0.3-1,0.8-2.1,1.6-3.2
	C423.3,205.3,419.7,195.5,415,186.4C415.1,186.3,415.1,186.3,415,186.4z"/>
<path class="st1" d="M167.6,207.8c3.3-10.9,8-21.2,14-30.7c-0.6-1-1.4-2.3-2.2-3.7c-6.5,10.1-11.7,21.2-15.4,32.9
	C165.3,206.8,166.5,207.3,167.6,207.8z"/>
<path class="st1" d="M236.4,123.7c-11.3,5.2-21.7,12-31,20c0.9,1,1.7,2,2.5,2.8c8.5-7.3,17.9-13.5,28.1-18.5
	C236.1,126.7,236.2,125.3,236.4,123.7z"/>
<path class="st2" d="M437.2,209.3l0.4,0c0.7,0,1.5,0,2.3,0c-3.1-12.3-7.8-24-13.8-34.8c-2.4,2.6-4.8,5.2-6.8,7.4
	c4.7,9.2,8.5,18.9,11.1,29C432.3,209.9,434.4,209.3,437.2,209.3z"/>
<path class="st2" d="M237.3,116.8c0.7-3.7,1.8-7.7,3.4-11.6c-16.8,6.3-32.2,15.5-45.6,27c2.1,2.4,4.2,4.8,6.3,7.1
	C212.2,130.1,224.2,122.5,237.3,116.8z"/>
<path class="st2" d="M387.8,141.1c1.8-3,3.6-5.9,5-8.2c-10.7-9.3-22.7-17.2-35.8-23.2c-1.1,2.4-2.2,5.4-2.8,9.1
	C366.5,124.7,377.8,132.2,387.8,141.1z"/>
<path class="st2" d="M231.5,134.6c-2.5,8.5-11.3,37.1,1.6,61.4s36.2,33,36.2,33c-14.2-17.5-7-28-2.5-41c4.5-12.9-2.1-21.9-2.1-21.9
	c11.1,7.3,13.5,22,13.5,22c-3.4-19.7,3.5-26.8,3.5-26.8c-1.3,13.2,4.5,20.7,4.5,20.7s4.7-13.4-1-23.9s1.4-20,1.4-20
	c-0.9,9.6,2.7,14.7,10.4,21.3c7.7,6.7,3.6,18.7,3.6,18.7c11-15,2.4-28.1,2.4-28.1c20.2,17.4,7.8,39.3,7.8,39.3
	c13.5-6.3,13.6-20.4,13.6-20.4c6.9,22.2-3.9,40.4-3.9,40.4c12.7-10.8,11.4-26.2,11.4-26.2c8,32.8-12.3,48.8-12.3,48.8
	c50.3-18.3,45.4-58,32.8-83.2c-12.6-25.2,1.8-45.5,1.8-45.5c-18.6,17.7-24.3,45.2-24.3,45.2c4.3-33.7-5.8-53.5-5.8-53.5
	c0.3,26.5-8.2,36.8-8.2,36.8c-5.3-12.5-4.8-28.8,3-46.1c7.8-17.3-3.7-30.5-3.7-30.5c-0.9,17.1-5.3,21.5-18.7,34.4
	c-13.4,12.9-6.9,36.2-6.9,36.2c-20.1-22.8-4.8-52.1-4.8-52.1c-36,23.8-15.5,72-15.5,72c-22.4-14.5-23.5-38.1-23.5-38.1
	c-12.7,38.8,9,75.7,9,75.7C229.9,163.4,231.5,134.6,231.5,134.6z"/>
<path class="st2" d="M158,205.5l0.8-2.3l0,0c4.1-12.6,9.9-24.5,17.1-35.3c-1.7-2.8-3.5-5.9-5.3-9c-10.1,14-17.8,29.8-22.6,46.9
	c1.9-0.1,3.7-0.3,5.5-0.3H158z"/>
<g>
	<path class="st0" d="M170.5,320.3l-7.8,9.3l9.4,8.9l0,0.2l-4.3,0.2l-8.2-7.8l0.4,8.2l-3.5,0.2l-1-18.5l3.5-0.2l0.4,7.8l6.6-8.2
		l4.3-0.2L170.5,320.3z"/>
	<path class="st0" d="M181.5,338.2l-1-18.5l3.5-0.2l1,18.5L181.5,338.2z"/>
	<path class="st0" d="M200.6,321.8l-5.9,0.3l-0.2-3.2c5.4-0.3,9.9-0.5,15.3-0.8l0.2,3.2l-5.9,0.3l0.8,15.4l-3.5,0.2L200.6,321.8z"/>
	<path class="st0" d="M236.7,333c-1.8,2-4.2,3-6.9,3.1c-6.9,0.4-10-4.2-10.3-9.1c-0.3-4.8,2.6-9.9,9.3-10.3c2.5-0.1,4.9,0.7,7,2.5
		l-2.2,2.4c-1.3-1.1-3-1.6-4.6-1.5c-4.5,0.2-6.2,3.7-6.1,6.8c0.2,3.1,2.1,6.2,6.7,6c1.6-0.1,3.4-0.8,4.6-2.1L236.7,333z"/>
	<path class="st0" d="M258.9,334.3l-0.4-7.5l-9.1,0.5l0.4,7.5l-3.5,0.2l-1-18.5l3.5-0.2l0.4,7.8l9.1-0.5l-0.4-7.8l3.5-0.2l1,18.5
		L258.9,334.3z"/>
	<path class="st0" d="M287,332.8l-13.9,0.7c-0.3-6.2-0.6-12.4-1-18.5l13.9-0.7l0.2,3.4l-10.4,0.5l0.2,4.3l10-0.5l0.2,3.3l-10,0.5
		l0.2,4.2l10.4-0.5L287,332.8z"/>
	<path class="st0" d="M309.1,313l3.5-0.2l1,18.6l-2.2,0.1v0l-10.4-12l0.6,12.5l-3.5,0.2l-1-18.5l2.8-0.1l9.7,11L309.1,313z"/>
</g>
</svg>
