<svg version="1.2" xmlns="http://www.w3.org/2000/svg" viewBox="0 0 1190 866" width="1190" height="866">
	<style>
		.s0 { fill: #ffffff } 
		.s1 { fill: #000000 } 
		.s2 { fill: #2bb673 } 
		.s3 { fill: #f05a27 } 
		.s4 { fill: #ef5926 } 
	</style>
	<g id="_Artboards_">
	</g>
	<g id="Layer 1">
		<path id="&lt;Path&gt;" class="s0" d="m455.38 399.65l35.74 49.25c7.75-0.52 14.91 0.44 20.82 3.17l-5.61-7.6-38.54-52.8c7.45-9.67 5.75-25.1-2.81-35.51-8.49-10.41-68.22-76.71-68.22-76.71l-3.1 1.77c0 0 48.65 68.07 56.18 77.52 4.43 5.76 5.98 11.37 5.17 15.58-0.44 2.81-1.84 5.02-4.06 6.28-2.66 1.55-5.46 2.21-8.34 1.48-3.25-0.74-6.65-3.03-10.34-7.68-7.23-8.79-59.73-81.74-59.73-81.74l-2.95 1.85c0 0 44.74 76.19 55.45 94.28 7.08 12.11 20.08 14.03 30.34 10.86z"/>
		<path id="&lt;Path&gt;" class="s1" d="m612.28 593.02c0.3 0.15 0.52 0.22 0.74 0.37 0.22-0.74 0.37-1.48 0.51-2.22-0.36 0.67-0.81 1.26-1.25 1.85z"/>
		<path id="&lt;Compound Path&gt;" fill-rule="evenodd" class="s0" d="m911.3 351.5c-6.28 7.01-39.58 43.93-44.38 48.44-4.8 4.43-7.6 5.9-13.14 4.72-3.84-0.74-12.55-2.88-17.57-4.13l-45.49 62.76c-8.93 1.92-17.64 4.94-25.62 9.22l59-80.55c-2.37-4.06-7.31-12.48-9.01-15.72-2.29-4.36-3.47-7.76-0.59-13.37 2.95-5.46 29.38-49.76 35.14-58.25 5.69-8.42 12.26-8.27 18.17-4.73 5.98 3.54 35.95 25.77 42.53 31.82 6.64 6.13 7.23 12.85 0.96 19.79zm-43.27-33.67c1.7-2.66 0.44-6.05-0.96-6.94-1.48-0.81-4.5-1.4-6.5 1.55-1.92 3.03-30.86 51.98-33 55.45-2.14 3.47-0.22 4.95 0.81 5.47 0.96 0.51 2.07 0.22 3.03-1.19 0 0 34.99-51.61 36.62-54.34zm-23.55 63.79c0 0 38.02-48.65 40.09-51.24 1.99-2.58 0.59-5.98-1.04-7.01-1.62-1.03-3.84-1.11-6.27 1.92-2.36 2.95-35.29 49.47-36.7 51.54-1.47 2.06-2.07 3.76-0.66 5.24 1.33 1.47 3.47 1.03 4.58-0.45zm55.45-45.85c-2-1.33-4.43-0.29-5.91 1.7-1.55 2.07-42.23 50.36-42.23 50.36-0.67 0.74-1.11 2.43 0.07 3.47 1.25 0.96 3.4 0.81 5.68-1.63 2.22-2.43 40.47-43.49 43.42-46.66 3.03-3.18 0.96-5.91-1.03-7.24z"/>
		<path id="&lt;Compound Path&gt;" fill-rule="evenodd" class="s0" d="m714.01 609.48c-5.24 18.83-27.69 43.71-52.42 41.49-18.09-1.55-27.03-15.06-30.79-22.81-4.73 7.09-14.62 20.01-25.4 24.81-6.72 2.95-13.81 2.8-19.94-0.3-4.2-2.14-7.75-5.54-9.82-9.45-5.53 5.91-17.42 16.61-31.23 14.77-11.22-1.41-17.57-9.16-20.52-15.8-5.1 7.31-16.17 19.64-33.23 21.11-16.09 1.48-24.44-9.08-27.91-18.09-5.98 7.98-19.49 22.15-41.27 23.19-8.12 0.37-14.62-2.59-18.9-8.64-10.27-14.62-5.47-44.52 3.47-66.16 4.35-10.63 9.37-22.59 13.95-33.44-10.7 17.64-22.89 38.32-31.45 54.56q-2.77 5.21-5.32 10.19c-15.28 29.53-27.32 52.94-59.07 54.27-1.32 0.15-2.65-0.59-3.39-1.85-0.74-1.18-0.74-2.66 0-3.84 2.73-4.21 12.03-20.3 16.98-50.87 3.77-23.04 5.24-55.82 5.83-76.93-7.9 25.25-22.96 68.73-41.27 96.72-22.96 35-50.5 53.9-77.6 53.9q-8.75 0-17.28-2.66c-17.05-5.24-20.6-19.79-18.24-31.6 2.81-14.1 14.4-27.76 29.17-26.36 1.11 0.07 2.21 0.74 2.81 1.7 0.66 1.03 0.81 2.21 0.36 3.32-1.1 3.47-4.28 15.65 4.07 23.33 3.1 2.81 8.04 3.99 13.8 3.18 15.06-2.14 31.46-15.51 43.93-35.74 19.35-31.31 32.2-61.8 43.2-101.96 6.72-24.81 10.04-38.92 11.37-44.9-10.71 0.52-45.41 4.95-75.83 39.06-29.53 33.3-24.44 57-22.22 63.43 1.99 5.61 5.02 8.49 7.01 8.86 7.53 1.33 15.14-7.39 18.75-11.6 0.59-0.59 1.11-1.18 1.48-1.62 2.88-3.25 5.24-2.29 6.13-1.7 3.47 2.22 1.55 8.71-0.67 13.73-4.8 10.93-20.6 28.14-49.32 23.56-11.44-1.85-20.38-9.08-25.03-20.38-7.31-17.72-2.73-41.94 11.67-61.65 21.12-29.02 48.73-47.92 86.9-59.44 24.66-7.38 73.17-12.18 76.27-7.53l1.18 1.7-1.92 2.51c-1.62 1.77-5.02 5.39-2.21 20.6 1.92 10.19 10.11 58.84 4.28 104.62 19.2-34.33 30.79-53.23 37.21-63.2l3.77-5.69c17.28-26.58 35.07-54.12 53.09-63.2 14.76-7.38 27.91-7.6 33.96-4.65 2.36 1.26 3.1 2.73 3.32 3.84 0.67 3.84-2.65 4.8-4.28 5.24-2.36 0.67-6.28 1.85-11.59 7.53-4.65 5.1-15.58 24.81-41.13 90.45l-2.36 5.91c-8.64 22.22-23.18 59.29-16.17 66.08 1.55 1.48 3.84 1.77 6.79 1.03 9.23-2.58 21.05-15.13 23.93-25.4 9.08-32.63 23.4-55.74 41.42-66.89 16.02-9.82 29.53-13.22 39.13-9.82 3.99 1.4 7.23 3.99 9.52 7.53 3.47-4.8 10.04-11.96 18.24-12.33 7.01-0.44 10.19 2.29 11.52 4.65 2.07 3.4 1.48 8.35-1.48 13.14-3.69 5.84-17.5 37.51-25.47 61.8-4.65 14.25-1.4 18.09-0.3 18.91 1.78 1.32 5.17 0.88 8.35-1.26 6.35-4.36 11-12.4 14.76-18.9 0.82-1.48 1.55-2.81 2.29-3.99 4.88-7.97 12.33-11 20.09-8.19 4.2 1.47 6.79 4.2 7.23 7.6 0.44 3.1-1.18 6.2-4.21 8.27-2.73 1.85-7.01 6.65-7.75 11.15q-0.44 2.66 0.89 4.43c0.59 0.81 1.69 1.11 3.25 0.89 5.83-0.82 18.01-9.46 25.91-29.39 10.12-25.47 7.31-50.8 0.52-55.45-2.96-1.99-6.2-1.7-8.35-1.11-5.61 1.55-11.22 6.87-14.47 13.88l-0.81 1.7c-5.83 12.63-7.6 16.47-12.4 14.62-0.82-0.29-2-0.96-2.74-2.66-1.91-4.58 1.41-13.44 3.62-18.38 2.88-6.43 14.25-27.54 39.43-28.21 9.97-0.29 18.46 3.1 24.29 9.6 3.92 4.43 6.43 10.12 7.46 16.54 6.05-10.85 16.98-26.8 31.01-31.82 14.99-5.54 20.53-1.11 22.52 2.07 2.14 3.39 1.62 8.12-1.26 10.92-3.47 3.33-6.64 9.08-9.45 14.18l-0.59 1.03c-2.43 4.43-5.83 6.72-9.01 5.98-1.25-0.29-4.13-1.55-4.28-6.94-0.07-3.1-0.37-4.5-0.59-5.17-0.59 0.37-1.77 1.19-3.69 3.33-2.88 3.1-27.91 31.6-27.91 58.47 0 12.63 6.5 19.05 12.48 20.83 7.01 2.06 14.32-1.26 19.2-8.64 6.86-10.64 9.89-18.98 11.81-24.52 1.77-4.94 2.88-7.9 5.76-8.64 2.29-0.59 4.8 0.08 6.5 1.85 3.47 3.54 3.69 10.85 0.66 21.71zm-177.72-51.39c-1.18-0.96-2.73-1.48-4.5-1.48-1.78 0-3.69 0.45-5.91 1.33-9.82 4.21-23.41 20.31-32.04 53.09-4.95 19.05-0.59 24.81 1.55 26.36 2.58 1.99 6.72 1.7 11-0.81 8.49-5.03 17.27-24.52 19.93-31.53 0.08-0.3 7.83-18.76 11.59-32.93 1.7-6.35 1.11-11.59-1.62-14.03z"/>
		<path id="&lt;Path&gt;" class="s0" d="m865.65 512.75c-4.22-13.97-14.2-24.14-28.88-29.42-21.12-7.62-49.42-3.93-68.8 8.94-16.86 11.2-27.48 28.12-27.7 44.18-0.14 10.03 3.81 18.4 11.14 23.55 8.39 5.92 18.48 7.16 27.66 3.39 8.37-3.43 14.64-10.41 15.97-17.78 1.6-8.88-2.34-14.05-6.68-15.1-3.93-0.96-7.6 1.42-8.82 5.47-0.48 1.12-2.4 4.53-4.81 5.42-0.94 0.35-1.88 0.26-2.96-0.26-1.6-0.79-3.43-4.37-3.67-9.46-0.2-4.19 0.47-18.65 17.28-28.99 11.6-7.14 23.73-8.33 32.48-3.19 8.38 4.92 12.66 15.22 12.08 28.99-1.2 27.99-36.43 52.23-57.47 66.71-3.26 2.24-6.16 4.23-8.5 5.95-15.56 11.4-44.51 32.6-59.83 53.92-12.29 17.12-16.54 38.56-12.15 41.8 0.54 0.39 1.21 0.63 1.92 0.63 0.99 0 2.05-0.46 2.94-1.63q0.52-0.71 1.22-1.85c3.59-5.72 12.03-19.13 46.04-15.12 18.83 2.21 54.21 2.9 79.54-17.46 15.63-12.57 24.77-31.1 27.16-55.08 0.11-1.13-0.28-2.25-1.08-3.07-0.8-0.81-1.88-1.17-3.02-1.12l-13.55 1.11c-2.36 0.18-4.18 2.12-4.22 4.5-0.1 5.74-1.67 25.04-17.97 32.32-13.23 5.92-28.85 2.97-42.62 0.36-4.29-0.8-8.44-1.59-12.35-2.09 9.34-7.25 29.51-22.42 54.74-38.61 34.4-22.07 66.99-46.97 54.91-87.01z"/>
		<path id="&lt;Path&gt;" class="s0" d="m913.93 538.05l16.71-40.47c6.86-0.24 31.54-1.13 45.79-2.12 17.2-1.2 23.91-7.93 25.64-25.7 0.13-1.32-0.43-2.59-1.49-3.41-1.06-0.8-2.43-0.99-3.64-0.53-3.62 1.39-16.88 6.03-35.75 7.48-10.58 0.81-25.96 1.77-39.14 1.77l-0.97-0.01c-3.45-0.07-6.41 0.33-8.39 6.27-1.62 4.88-23.96 63.87-28.92 75.87-3.39 8.2-4.11 13.59-2.27 16.97 0.91 1.66 2.46 2.77 4.37 3.11 4.12 0.74 6.63-1.47 11.67-5.89l2.6-2.27c1-0.86 24.71-21.13 42.71-15.98 5.6 1.6 8.99 6.45 10.84 10.23 5.97 12.18 5.58 31.34-0.97 47.67-12.17 30.36-25.25 44.03-43.72 45.72-8.52 0.77-14.93-2.09-17.99-8.07-2.96-5.78-2.06-13.48 2.13-18.31 5.63-6.47 10.33-8.64 13.14-9.93 1.98-0.91 4.43-2.04 4.09-4.81-0.11-0.87-1.24-8.67-7.12-12.88-3.44-2.46-7.7-3.18-12.63-2.14-17.27 3.6-35.18 15.01-33.67 36.22 1.41 19.82 15.24 34.89 36.99 40.33 3.05 0.76 6.93 1.19 11.4 1.19 25.5 0 70.08-14.04 88.44-60.52 11.22-28.4 7.13-57.36-10.41-73.78-16.38-15.33-41.42-17.42-69.44-6.01z"/>
		<path id="&lt;Path&gt;" class="s2" d="m753.88 287.93c-0.07 2.73-0.07 5.54 0 8.56 21.34 10.86 41.05 24.59 58.55 40.69 1.33-2.14 2.66-4.43 3.99-6.72-18.68-16.98-39.72-31.31-62.54-42.53z"/>
		<path id="&lt;Path&gt;" class="s2" d="m877.04 410.72c-1.92 1.77-3.84 3.39-6.06 4.79 10.12 20.6 17.57 42.75 22 65.94 1.19-3.18 2-5.24 2.22-5.98 0.66-1.92 1.62-4.21 3.1-6.5-4.8-20.45-11.96-39.94-21.12-58.33-0.07 0-0.07 0-0.14 0.08z"/>
		<path id="&lt;Path&gt;" class="s2" d="m382.12 453.69c6.65-21.78 16.1-42.38 27.91-61.36-1.25-2.07-2.73-4.58-4.35-7.31-13 20.23-23.41 42.31-30.72 65.86 2.66 0.74 5.1 1.63 7.16 2.81z"/>
		<path id="&lt;Path&gt;" class="s2" d="m519.75 285.35c-22.52 10.48-43.41 23.92-62.02 40.01 1.77 2 3.4 3.92 5.02 5.69 16.98-14.62 35.89-27.03 56.26-36.92 0.15-2.66 0.37-5.61 0.74-8.78z"/>
		<path id="&lt;Path&gt;" class="s3" d="m921.41 456.57l0.89 0.07c1.47 0 2.95 0 4.5-0.07-6.28-24.59-15.65-47.92-27.54-69.7-4.8 5.24-9.6 10.48-13.58 14.76 9.45 18.32 16.98 37.73 22.29 58.04 3.55-1.85 7.9-3.1 13.44-3.1z"/>
		<path id="&lt;Path&gt;" class="s3" d="m521.67 271.69c1.48-7.39 3.62-15.36 6.79-23.19-33.66 12.63-64.45 31.01-91.18 53.97 4.21 4.73 8.49 9.53 12.62 14.18 21.42-18.38 45.56-33.59 71.77-44.96z"/>
		<path id="&lt;Path&gt;" class="s3" d="m822.55 320.27c3.69-6.06 7.23-11.89 10.04-16.39-21.41-18.68-45.48-34.34-71.62-46.44-2.22 4.79-4.36 10.85-5.61 18.23 24.58 11.67 47.18 26.73 67.19 44.6z"/>
		<path id="&lt;Path&gt;" class="s4" d="m510.07 307.21c-5.07 17.07-22.61 74.29 3.23 122.75 25.84 48.45 72.45 65.98 72.45 65.98-28.38-35.07-14.07-56.06-5.07-81.91 9-25.84-4.16-43.83-4.16-43.83 22.15 14.53 27.08 43.91 27.08 43.91-6.77-39.38 7.07-53.68 7.07-53.68-2.55 26.5 9 41.38 9 41.38 0 0 9.46-26.77-2.08-47.77-11.53-20.99 2.77-39.91 2.77-39.91-1.84 19.15 5.31 29.3 20.77 42.68 15.46 13.39 7.15 37.38 7.15 37.38 21.92-29.99 4.85-56.3 4.85-56.3 40.38 34.84 15.69 78.68 15.69 78.68 26.99-12.69 27.22-40.84 27.22-40.84 13.85 44.3-7.84 80.76-7.84 80.76 25.38-21.69 22.76-52.38 22.76-52.38 16 65.53-24.61 97.53-24.61 97.53 100.6-36.61 90.76-115.99 65.53-166.44-25.23-50.45 3.69-91.06 3.69-91.06-37.22 35.38-48.61 90.45-48.61 90.45 8.62-67.38-11.69-107.06-11.69-107.06 0.62 52.91-16.3 73.68-16.3 73.68-10.61-24.92-9.69-57.69 5.92-92.3 15.6-34.61-7.31-60.91-7.31-60.91-1.84 34.15-10.61 42.92-37.37 68.76-26.77 25.84-13.85 72.45-13.85 72.45-40.15-45.69-9.69-104.29-9.69-104.29-71.99 47.53-30.92 143.97-30.92 143.97-44.76-29.07-47.07-76.14-47.07-76.14-25.38 77.53 18 151.36 18 151.36-49.84-39.22-46.61-96.9-46.61-96.9z"/>
		<path id="&lt;Path&gt;" class="s3" d="m363.09 448.96l1.68-4.7v0.05c8.2-25.25 19.79-48.95 34.26-70.59-3.32-5.61-6.94-11.73-10.56-17.94-20.15 28.06-35.51 59.66-45.11 93.77 3.77-0.29 7.46-0.51 11-0.59z"/>
		<g id="&lt;Group&gt;">
			<path id="&lt;Compound Path&gt;" class="s0" d="m388.79 680.22l-15.56 18.59 18.82 17.8 0.02 0.42-8.64 0.44-16.37-15.62 0.84 16.42-6.99 0.36-1.91-37.09 6.99-0.36 0.81 15.68 13.29-16.41 8.69-0.45z"/>
			<path id="&lt;Compound Path&gt;" class="s0" d="m409.91 714.45l-1.91-37.1 6.95-0.35 1.91 37.09z"/>
			<path id="&lt;Compound Path&gt;" class="s0" d="m448.12 681.68l-11.76 0.68-0.37-6.36c10.7-0.62 19.77-1.13 30.52-1.76l0.37 6.36-11.77 0.68 1.77 30.73-6.99 0.4z"/>
			<path id="&lt;Compound Path&gt;" class="s0" d="m520.3 704.09c-3.62 3.96-8.46 5.97-13.81 6.24-13.78 0.71-20.1-8.49-20.65-18.13-0.55-9.69 5.25-19.87 18.66-20.56 5.03-0.26 9.89 1.4 13.9 4.97l-4.43 4.74c-2.56-2.26-5.9-3.2-9.13-3.03-8.96 0.46-12.48 7.34-12.11 13.53 0.37 6.15 4.25 12.38 13.42 11.9 3.23-0.16 6.82-1.68 9.13-4.24z"/>
			<path id="&lt;Compound Path&gt;" class="s0" d="m564.81 706.52l-0.77-14.99-18.23 0.94 0.77 15-7 0.36-1.9-37.09 6.99-0.36 0.81 15.63 18.23-0.94-0.81-15.64 6.94-0.35 1.91 37.09z"/>
			<path id="&lt;Compound Path&gt;" class="s0" d="m621.05 703.58l-27.76 1.43c-0.64-12.35-1.28-24.75-1.91-37.1l27.76-1.43 0.35 6.78-20.82 1.08 0.44 8.53 20.08-1.04 0.34 6.52-20.08 1.04 0.42 8.37 20.83-1.07z"/>
			<path id="&lt;Compound Path&gt;" class="s0" d="m665.11 664.07l6.99-0.36 1.92 37.15-4.35 0.22v0.05l-20.79-24.07 1.29 25.02-7 0.36-1.91-37.1 5.67-0.29 19.36 22.06z"/>
		</g>
	</g>
</svg>